<svg xmlns="http://www.w3.org/2000/svg" xmlns:xlink="http://www.w3.org/1999/xlink" width="30" zoomAndPan="magnify" viewBox="0 0 824.88 824.999997" height="30" preserveAspectRatio="xMidYMid meet" version="1.0"><defs><clipPath id="5866d22425"><path d="M 0 0.0585938 L 824.761719 0.0585938 L 824.761719 824.9375 L 0 824.9375 Z M 0 0.0585938 " clip-rule="nonzero"/></clipPath></defs><g clip-path="url(#5866d22425)"><path fill="#ffffff" d="M 0 0.0585938 L 824.878906 0.0585938 L 824.878906 824.941406 L 0 824.941406 Z M 0 0.0585938 " fill-opacity="1" fill-rule="nonzero"/><path fill="#ffffff" d="M 0 0.0585938 L 824.878906 0.0585938 L 824.878906 824.941406 L 0 824.941406 Z M 0 0.0585938 " fill-opacity="1" fill-rule="nonzero"/><path fill="#12100e" d="M 123.730469 0.0585938 L 701.148438 0.0585938 C 703.171875 0.0585938 705.195312 0.109375 707.21875 0.210938 C 709.242188 0.308594 711.261719 0.457031 713.277344 0.65625 C 715.292969 0.855469 717.300781 1.101562 719.304688 1.398438 C 721.304688 1.695312 723.300781 2.042969 725.285156 2.4375 C 727.273438 2.832031 729.246094 3.277344 731.210938 3.769531 C 733.175781 4.261719 735.128906 4.800781 737.066406 5.386719 C 739.003906 5.976562 740.925781 6.609375 742.832031 7.292969 C 744.738281 7.976562 746.628906 8.703125 748.5 9.480469 C 750.367188 10.253906 752.21875 11.074219 754.050781 11.941406 C 755.878906 12.804688 757.6875 13.714844 759.476562 14.671875 C 761.261719 15.625 763.023438 16.621094 764.757812 17.664062 C 766.496094 18.703125 768.207031 19.789062 769.890625 20.914062 C 771.574219 22.039062 773.226562 23.203125 774.855469 24.410156 C 776.480469 25.617188 778.078125 26.859375 779.644531 28.144531 C 781.207031 29.429688 782.742188 30.753906 784.242188 32.113281 C 785.742188 33.472656 787.207031 34.867188 788.640625 36.300781 C 790.070312 37.730469 791.46875 39.199219 792.828125 40.699219 C 794.1875 42.199219 795.507812 43.730469 796.792969 45.296875 C 798.078125 46.863281 799.324219 48.457031 800.53125 50.085938 C 801.738281 51.710938 802.902344 53.367188 804.027344 55.050781 C 805.152344 56.734375 806.234375 58.445312 807.277344 60.179688 C 808.316406 61.917969 809.316406 63.679688 810.269531 65.464844 C 811.222656 67.25 812.132812 69.058594 813 70.890625 C 813.867188 72.71875 814.6875 74.570312 815.460938 76.441406 C 816.234375 78.3125 816.964844 80.203125 817.648438 82.109375 C 818.328125 84.015625 818.964844 85.9375 819.550781 87.875 C 820.140625 89.8125 820.679688 91.761719 821.171875 93.726562 C 821.664062 95.691406 822.105469 97.667969 822.503906 99.652344 C 822.898438 101.640625 823.242188 103.632812 823.539062 105.636719 C 823.835938 107.640625 824.085938 109.648438 824.285156 111.664062 C 824.484375 113.679688 824.632812 115.699219 824.730469 117.722656 C 824.832031 119.742188 824.878906 121.765625 824.878906 123.792969 L 824.878906 701.207031 C 824.878906 703.234375 824.832031 705.257812 824.730469 707.277344 C 824.632812 709.300781 824.484375 711.320312 824.285156 713.335938 C 824.085938 715.351562 823.835938 717.359375 823.539062 719.363281 C 823.242188 721.367188 822.898438 723.359375 822.503906 725.347656 C 822.105469 727.332031 821.664062 729.308594 821.171875 731.273438 C 820.679688 733.238281 820.140625 735.1875 819.550781 737.125 C 818.964844 739.0625 818.328125 740.984375 817.648438 742.890625 C 816.964844 744.796875 816.234375 746.6875 815.460938 748.558594 C 814.6875 750.429688 813.867188 752.28125 813 754.109375 C 812.132812 755.941406 811.222656 757.75 810.269531 759.535156 C 809.316406 761.320312 808.316406 763.082031 807.277344 764.820312 C 806.234375 766.554688 805.152344 768.265625 804.027344 769.949219 C 802.902344 771.632812 801.738281 773.289062 800.53125 774.914062 C 799.324219 776.542969 798.078125 778.136719 796.792969 779.703125 C 795.507812 781.269531 794.1875 782.800781 792.828125 784.300781 C 791.46875 785.800781 790.070312 787.269531 788.640625 788.699219 C 787.207031 790.132812 785.742188 791.527344 784.242188 792.886719 C 782.742188 794.246094 781.207031 795.570312 779.644531 796.855469 C 778.078125 798.136719 776.480469 799.382812 774.855469 800.589844 C 773.226562 801.796875 771.574219 802.960938 769.890625 804.085938 C 768.207031 805.210938 766.496094 806.296875 764.757812 807.335938 C 763.023438 808.378906 761.261719 809.375 759.476562 810.328125 C 757.6875 811.285156 755.878906 812.195312 754.050781 813.058594 C 752.21875 813.925781 750.367188 814.746094 748.5 815.519531 C 746.628906 816.296875 744.738281 817.023438 742.832031 817.707031 C 740.925781 818.390625 739.003906 819.023438 737.066406 819.613281 C 735.128906 820.199219 733.175781 820.738281 731.210938 821.230469 C 729.246094 821.722656 727.273438 822.167969 725.285156 822.5625 C 723.300781 822.957031 721.304688 823.304688 719.304688 823.601562 C 717.300781 823.898438 715.292969 824.144531 713.277344 824.34375 C 711.261719 824.542969 709.242188 824.691406 707.21875 824.789062 C 705.195312 824.890625 703.171875 824.941406 701.148438 824.941406 L 123.730469 824.941406 C 121.707031 824.941406 119.683594 824.890625 117.660156 824.789062 C 115.636719 824.691406 113.621094 824.542969 111.605469 824.34375 C 109.589844 824.144531 107.578125 823.898438 105.578125 823.601562 C 103.574219 823.304688 101.578125 822.957031 99.59375 822.5625 C 97.605469 822.167969 95.632812 821.722656 93.667969 821.230469 C 91.703125 820.738281 89.753906 820.199219 87.816406 819.613281 C 85.875 819.023438 83.953125 818.390625 82.046875 817.707031 C 80.140625 817.023438 78.253906 816.296875 76.382812 815.519531 C 74.511719 814.746094 72.660156 813.925781 70.828125 813.058594 C 69 812.195312 67.191406 811.285156 65.40625 810.328125 C 63.621094 809.375 61.859375 808.378906 60.121094 807.335938 C 58.382812 806.296875 56.675781 805.210938 54.988281 804.085938 C 53.304688 802.960938 51.652344 801.796875 50.023438 800.589844 C 48.398438 799.382812 46.800781 798.136719 45.238281 796.855469 C 43.671875 795.570312 42.140625 794.246094 40.636719 792.886719 C 39.136719 791.527344 37.671875 790.132812 36.242188 788.699219 C 34.808594 787.269531 33.414062 785.800781 32.050781 784.300781 C 30.691406 782.800781 29.371094 781.269531 28.085938 779.703125 C 26.800781 778.136719 25.554688 776.542969 24.347656 774.914062 C 23.144531 773.289062 21.976562 771.632812 20.851562 769.949219 C 19.726562 768.265625 18.644531 766.554688 17.605469 764.820312 C 16.5625 763.082031 15.566406 761.320312 14.609375 759.535156 C 13.65625 757.75 12.746094 755.941406 11.878906 754.109375 C 11.015625 752.28125 10.195312 750.429688 9.417969 748.558594 C 8.644531 746.6875 7.914062 744.796875 7.234375 742.890625 C 6.550781 740.984375 5.914062 739.0625 5.328125 737.125 C 4.738281 735.1875 4.199219 733.238281 3.707031 731.273438 C 3.214844 729.308594 2.773438 727.332031 2.378906 725.347656 C 1.984375 723.359375 1.636719 721.367188 1.339844 719.363281 C 1.042969 717.359375 0.792969 715.351562 0.597656 713.335938 C 0.398438 711.320312 0.25 709.300781 0.148438 707.277344 C 0.0507812 705.257812 0 703.234375 0 701.207031 L 0 123.792969 C 0 121.765625 0.0507812 119.742188 0.148438 117.722656 C 0.25 115.699219 0.398438 113.679688 0.597656 111.664062 C 0.792969 109.648438 1.042969 107.640625 1.339844 105.636719 C 1.636719 103.632812 1.984375 101.640625 2.378906 99.652344 C 2.773438 97.667969 3.214844 95.691406 3.707031 93.726562 C 4.199219 91.761719 4.738281 89.8125 5.328125 87.875 C 5.914062 85.9375 6.550781 84.015625 7.234375 82.109375 C 7.914062 80.203125 8.644531 78.3125 9.417969 76.441406 C 10.195312 74.570312 11.015625 72.71875 11.878906 70.890625 C 12.746094 69.058594 13.65625 67.25 14.609375 65.464844 C 15.566406 63.679688 16.5625 61.917969 17.605469 60.179688 C 18.644531 58.445312 19.726562 56.734375 20.851562 55.050781 C 21.976562 53.367188 23.144531 51.710938 24.347656 50.085938 C 25.554688 48.457031 26.800781 46.863281 28.085938 45.296875 C 29.371094 43.730469 30.691406 42.199219 32.050781 40.699219 C 33.414062 39.199219 34.808594 37.730469 36.242188 36.300781 C 37.671875 34.867188 39.136719 33.472656 40.636719 32.113281 C 42.140625 30.753906 43.671875 29.429688 45.238281 28.144531 C 46.800781 26.859375 48.398438 25.617188 50.023438 24.410156 C 51.652344 23.203125 53.304688 22.039062 54.988281 20.914062 C 56.675781 19.789062 58.382812 18.703125 60.121094 17.664062 C 61.859375 16.621094 63.621094 15.625 65.40625 14.671875 C 67.191406 13.714844 69 12.804688 70.828125 11.941406 C 72.660156 11.074219 74.511719 10.253906 76.382812 9.480469 C 78.253906 8.703125 80.140625 7.976562 82.046875 7.292969 C 83.953125 6.609375 85.875 5.976562 87.816406 5.386719 C 89.753906 4.800781 91.703125 4.261719 93.667969 3.769531 C 95.632812 3.277344 97.605469 2.832031 99.59375 2.4375 C 101.578125 2.042969 103.574219 1.695312 105.578125 1.398438 C 107.578125 1.101562 109.589844 0.855469 111.605469 0.65625 C 113.621094 0.457031 115.636719 0.308594 117.660156 0.210938 C 119.683594 0.109375 121.707031 0.0585938 123.730469 0.0585938 Z M 123.730469 0.0585938 " fill-opacity="1" fill-rule="nonzero"/></g><path fill="#ffffff" d="M 201.386719 278.777344 C 201.386719 272.335938 198.164062 264.28125 193.332031 261.058594 L 143.386719 199.835938 L 143.386719 190.167969 L 301.273438 190.167969 L 422.105469 457.609375 L 530.050781 190.167969 L 679.882812 190.167969 L 679.882812 199.835938 L 636.382812 241.722656 C 633.160156 243.335938 631.546875 248.167969 631.546875 253 L 631.546875 559.109375 C 631.546875 563.941406 633.160156 568.777344 636.382812 572 L 679.882812 612.277344 L 679.882812 621.941406 L 465.605469 621.941406 L 465.605469 612.277344 L 509.105469 570.386719 C 513.9375 565.554688 513.9375 563.941406 513.9375 557.5 L 513.9375 311 L 391.496094 620.332031 L 375.386719 620.332031 L 233.609375 311 L 233.609375 518.832031 C 231.996094 526.886719 235.21875 536.554688 241.664062 543 L 298.050781 612.277344 L 298.050781 620.332031 L 136.941406 620.332031 L 136.941406 612.277344 L 193.332031 543 C 199.777344 536.554688 202.996094 526.886719 201.386719 518.832031 Z M 201.386719 278.777344 " fill-opacity="1" fill-rule="nonzero"/></svg>