<svg xmlns="http://www.w3.org/2000/svg" xmlns:xlink="http://www.w3.org/1999/xlink" width="30" zoomAndPan="magnify" viewBox="0 0 824.88 824.999997" height="30" preserveAspectRatio="xMidYMid meet" version="1.0"><defs><clipPath id="e4b624c3f5"><path d="M 0 0.0585938 L 824.761719 0.0585938 L 824.761719 824.9375 L 0 824.9375 Z M 0 0.0585938 " clip-rule="nonzero"/></clipPath></defs><g clip-path="url(#e4b624c3f5)"><path fill="#ffffff" d="M 0 0.0585938 L 824.878906 0.0585938 L 824.878906 824.941406 L 0 824.941406 Z M 0 0.0585938 " fill-opacity="1" fill-rule="nonzero"/><path fill="#ffffff" d="M 0 0.0585938 L 824.878906 0.0585938 L 824.878906 824.941406 L 0 824.941406 Z M 0 0.0585938 " fill-opacity="1" fill-rule="nonzero"/><path fill="#000000" d="M 254.542969 0.0585938 L 570.3125 0.0585938 C 574.476562 0.0585938 578.640625 0.164062 582.800781 0.367188 C 586.960938 0.570312 591.117188 0.878906 595.261719 1.285156 C 599.40625 1.695312 603.539062 2.203125 607.660156 2.816406 C 611.78125 3.425781 615.886719 4.136719 619.972656 4.949219 C 624.058594 5.765625 628.121094 6.675781 632.160156 7.6875 C 636.203125 8.699219 640.214844 9.8125 644.203125 11.019531 C 648.1875 12.230469 652.144531 13.535156 656.066406 14.941406 C 659.988281 16.34375 663.875 17.84375 667.722656 19.4375 C 671.570312 21.03125 675.378906 22.71875 679.144531 24.5 C 682.910156 26.28125 686.628906 28.152344 690.304688 30.117188 C 693.980469 32.082031 697.601562 34.132812 701.175781 36.273438 C 704.75 38.417969 708.265625 40.644531 711.730469 42.960938 C 715.195312 45.273438 718.601562 47.671875 721.945312 50.152344 C 725.292969 52.636719 728.574219 55.195312 731.796875 57.839844 C 735.015625 60.484375 738.167969 63.203125 741.257812 66 C 744.34375 68.796875 747.359375 71.671875 750.304688 74.617188 C 753.25 77.5625 756.121094 80.578125 758.917969 83.664062 C 761.71875 86.75 764.4375 89.90625 767.082031 93.125 C 769.722656 96.34375 772.285156 99.628906 774.765625 102.972656 C 777.25 106.320312 779.648438 109.726562 781.960938 113.1875 C 784.277344 116.652344 786.503906 120.171875 788.644531 123.746094 C 790.785156 127.316406 792.839844 130.941406 794.804688 134.617188 C 796.765625 138.289062 798.640625 142.007812 800.421875 145.777344 C 802.203125 149.542969 803.890625 153.347656 805.484375 157.199219 C 807.078125 161.046875 808.578125 164.933594 809.980469 168.855469 C 811.382812 172.777344 812.691406 176.730469 813.898438 180.71875 C 815.109375 184.703125 816.21875 188.71875 817.230469 192.757812 C 818.246094 196.800781 819.15625 200.863281 819.96875 204.949219 C 820.78125 209.035156 821.496094 213.136719 822.105469 217.257812 C 822.714844 221.378906 823.226562 225.511719 823.636719 229.660156 C 824.042969 233.804688 824.351562 237.957031 824.554688 242.121094 C 824.757812 246.28125 824.859375 250.445312 824.859375 254.609375 L 824.859375 570.375 C 824.859375 574.542969 824.757812 578.707031 824.554688 582.867188 C 824.351562 587.027344 824.042969 591.179688 823.636719 595.328125 C 823.226562 599.472656 822.714844 603.605469 822.105469 607.726562 C 821.496094 611.847656 820.78125 615.949219 819.96875 620.035156 C 819.15625 624.121094 818.246094 628.183594 817.230469 632.226562 C 816.21875 636.265625 815.109375 640.28125 813.898438 644.269531 C 812.691406 648.253906 811.382812 652.207031 809.980469 656.132812 C 808.578125 660.054688 807.078125 663.9375 805.484375 667.789062 C 803.890625 671.636719 802.203125 675.445312 800.421875 679.210938 C 798.640625 682.976562 796.765625 686.695312 794.804688 690.371094 C 792.839844 694.042969 790.785156 697.667969 788.644531 701.242188 C 786.503906 704.8125 784.277344 708.332031 781.960938 711.796875 C 779.648438 715.261719 777.25 718.664062 774.765625 722.011719 C 772.285156 725.355469 769.722656 728.640625 767.082031 731.859375 C 764.4375 735.082031 761.71875 738.234375 758.917969 741.320312 C 756.121094 744.40625 753.25 747.425781 750.304688 750.371094 C 747.359375 753.316406 744.34375 756.1875 741.257812 758.984375 C 738.167969 761.78125 735.015625 764.503906 731.796875 767.144531 C 728.574219 769.789062 725.292969 772.351562 721.945312 774.832031 C 718.601562 777.3125 715.195312 779.710938 711.730469 782.027344 C 708.265625 784.339844 704.75 786.570312 701.175781 788.710938 C 697.601562 790.851562 693.980469 792.90625 690.304688 794.867188 C 686.628906 796.832031 682.910156 798.703125 679.144531 800.484375 C 675.378906 802.265625 671.570312 803.953125 667.722656 805.550781 C 663.875 807.144531 659.988281 808.640625 656.066406 810.046875 C 652.144531 811.449219 648.1875 812.753906 644.203125 813.964844 C 640.214844 815.175781 636.203125 816.285156 632.160156 817.296875 C 628.121094 818.308594 624.058594 819.222656 619.972656 820.035156 C 615.886719 820.847656 611.78125 821.558594 607.660156 822.171875 C 603.539062 822.78125 599.40625 823.292969 595.261719 823.699219 C 591.117188 824.109375 586.960938 824.414062 582.800781 824.617188 C 578.640625 824.824219 574.476562 824.925781 570.3125 824.925781 L 254.542969 824.925781 C 250.378906 824.925781 246.214844 824.824219 242.054688 824.617188 C 237.894531 824.414062 233.738281 824.109375 229.59375 823.699219 C 225.449219 823.292969 221.316406 822.78125 217.195312 822.171875 C 213.074219 821.558594 208.96875 820.847656 204.882812 820.035156 C 200.796875 819.222656 196.734375 818.308594 192.695312 817.296875 C 188.652344 816.285156 184.640625 815.175781 180.652344 813.964844 C 176.667969 812.753906 172.710938 811.449219 168.789062 810.046875 C 164.867188 808.640625 160.980469 807.144531 157.132812 805.550781 C 153.285156 803.953125 149.476562 802.265625 145.710938 800.484375 C 141.945312 798.703125 138.226562 796.832031 134.550781 794.867188 C 130.875 792.90625 127.253906 790.851562 123.679688 788.710938 C 120.105469 786.570312 116.589844 784.339844 113.125 782.027344 C 109.660156 779.710938 106.253906 777.3125 102.910156 774.832031 C 99.5625 772.351562 96.28125 769.789062 93.058594 767.144531 C 89.839844 764.503906 86.6875 761.78125 83.601562 758.984375 C 80.511719 756.1875 77.496094 753.316406 74.550781 750.371094 C 71.605469 747.425781 68.734375 744.40625 65.9375 741.320312 C 63.136719 738.234375 60.417969 735.082031 57.773438 731.859375 C 55.132812 728.640625 52.570312 725.355469 50.089844 722.011719 C 47.605469 718.664062 45.207031 715.261719 42.894531 711.796875 C 40.578125 708.332031 38.351562 704.8125 36.210938 701.242188 C 34.070312 697.667969 32.015625 694.042969 30.050781 690.371094 C 28.089844 686.695312 26.214844 682.976562 24.433594 679.210938 C 22.652344 675.445312 20.964844 671.636719 19.371094 667.789062 C 17.777344 663.9375 16.277344 660.054688 14.875 656.132812 C 13.472656 652.207031 12.164062 648.253906 10.957031 644.269531 C 9.746094 640.28125 8.636719 636.265625 7.625 632.226562 C 6.613281 628.183594 5.699219 624.121094 4.886719 620.035156 C 4.074219 615.949219 3.363281 611.847656 2.75 607.726562 C 2.140625 603.605469 1.628906 599.472656 1.222656 595.328125 C 0.8125 591.179688 0.507812 587.027344 0.300781 582.867188 C 0.0976562 578.707031 -0.00390625 574.542969 -0.00390625 570.375 L -0.00390625 254.609375 C -0.00390625 250.445312 0.0976562 246.28125 0.300781 242.121094 C 0.507812 237.957031 0.8125 233.804688 1.222656 229.660156 C 1.628906 225.511719 2.140625 221.378906 2.75 217.257812 C 3.363281 213.136719 4.074219 209.035156 4.886719 204.949219 C 5.699219 200.863281 6.613281 196.800781 7.625 192.757812 C 8.636719 188.71875 9.746094 184.703125 10.957031 180.71875 C 12.164062 176.730469 13.472656 172.777344 14.875 168.855469 C 16.277344 164.933594 17.777344 161.046875 19.371094 157.199219 C 20.964844 153.347656 22.652344 149.542969 24.433594 145.777344 C 26.214844 142.007812 28.089844 138.289062 30.050781 134.617188 C 32.015625 130.941406 34.070312 127.316406 36.210938 123.746094 C 38.351562 120.171875 40.578125 116.652344 42.894531 113.1875 C 45.207031 109.726562 47.605469 106.320312 50.089844 102.972656 C 52.570312 99.628906 55.132812 96.34375 57.773438 93.125 C 60.417969 89.90625 63.136719 86.75 65.9375 83.664062 C 68.734375 80.578125 71.605469 77.5625 74.550781 74.617188 C 77.496094 71.671875 80.511719 68.796875 83.601562 66 C 86.6875 63.203125 89.839844 60.484375 93.058594 57.839844 C 96.28125 55.195312 99.5625 52.636719 102.910156 50.152344 C 106.253906 47.671875 109.660156 45.273438 113.125 42.960938 C 116.589844 40.644531 120.105469 38.417969 123.679688 36.273438 C 127.253906 34.132812 130.875 32.082031 134.550781 30.117188 C 138.226562 28.152344 141.945312 26.28125 145.710938 24.5 C 149.476562 22.71875 153.285156 21.03125 157.132812 19.4375 C 160.980469 17.84375 164.867188 16.34375 168.789062 14.941406 C 172.710938 13.535156 176.667969 12.230469 180.652344 11.019531 C 184.640625 9.8125 188.652344 8.699219 192.695312 7.6875 C 196.734375 6.675781 200.796875 5.765625 204.882812 4.949219 C 208.96875 4.136719 213.074219 3.425781 217.195312 2.816406 C 221.316406 2.203125 225.449219 1.695312 229.59375 1.285156 C 233.738281 0.878906 237.894531 0.570312 242.054688 0.367188 C 246.214844 0.164062 250.378906 0.0585938 254.542969 0.0585938 Z M 254.542969 0.0585938 " fill-opacity="1" fill-rule="evenodd"/></g><path fill="#fefefe" d="M 398.925781 445.167969 L 378.160156 415.433594 L 212.84375 178.984375 L 284.027344 178.984375 L 417.421875 369.828125 L 438.199219 399.527344 L 611.605469 647.585938 L 540.445312 647.585938 L 398.929688 445.171875 Z M 462.394531 371.382812 L 657.921875 144.101562 L 611.5625 144.101562 L 441.796875 341.449219 L 306.210938 144.101562 L 149.820312 144.101562 L 354.855469 442.519531 L 149.820312 680.863281 L 196.15625 680.863281 L 375.421875 472.464844 L 518.640625 680.863281 L 675.03125 680.863281 L 462.363281 371.390625 L 462.394531 371.390625 Z M 462.394531 371.382812 " fill-opacity="1" fill-rule="nonzero"/></svg>